<?xml version="1.0" standalone="no"?>
<!DOCTYPE svg PUBLIC "-//W3C//DTD SVG 20010904//EN"
 "http://www.w3.org/TR/2001/REC-SVG-20010904/DTD/svg10.dtd">
<svg version="1.0" xmlns="http://www.w3.org/2000/svg"
 width="364.000000pt" height="364.000000pt" viewBox="0 0 364.000000 364.000000"
 preserveAspectRatio="xMidYMid meet">
<metadata>
Created by potrace 1.14, written by Peter Selinger 2001-2017
</metadata>
<g transform="translate(0.000000,364.000000) scale(0.100000,-0.100000)"
fill="#000000" stroke="none">
<path d="M1585 3624 c-1053 -142 -1762 -1142 -1545 -2179 174 -837 924 -1445
1780 -1445 1152 0 2016 1066 1780 2195 -193 923 -1083 1555 -2015 1429z m110
-560 c125 -641 116 -602 126 -546 30 159 206 224 325 119 48 -41 65 -79 65
-142 0 -56 -24 -117 -57 -146 -27 -24 -80 -49 -103 -49 -15 0 8 -37 107 -170
70 -93 130 -169 133 -170 4 0 17 56 29 125 13 69 25 123 27 121 6 -6 103 -589
99 -594 -2 -1 -88 90 -191 203 -103 113 -189 204 -192 202 -2 -3 48 -431 112
-952 63 -522 114 -950 112 -952 -2 -1 -123 307 -268 687 l-264 690 -144 50
c-79 28 -146 49 -148 46 -2 -2 34 -81 81 -175 48 -94 84 -171 80 -171 -4 0
-529 414 -558 441 -5 4 108 45 250 91 l259 84 3 879 c1 483 4 876 7 873 3 -2
52 -247 110 -544z"/>
</g>
</svg>
